<?xml version="1.0" standalone="no"?>
<!DOCTYPE svg PUBLIC "-//W3C//DTD SVG 20010904//EN"
 "http://www.w3.org/TR/2001/REC-SVG-20010904/DTD/svg10.dtd">
<svg version="1.0" xmlns="http://www.w3.org/2000/svg"
 width="512.000000pt" height="512.000000pt" viewBox="0 0 512.000000 512.000000"
 preserveAspectRatio="xMidYMid meet">

<g transform="translate(0.000000,512.000000) scale(0.100000,-0.100000)"
fill="#000000" stroke="none">
<path d="M1242 5109 c-45 -13 -108 -79 -121 -126 -7 -25 -11 -293 -11 -795 l0
-756 -222 -5 c-230 -4 -262 -9 -390 -57 -77 -29 -191 -104 -261 -175 -70 -68
-148 -184 -177 -263 -58 -153 -55 -106 -55 -1017 0 -911 -3 -864 55 -1017 66
-177 261 -372 438 -438 128 -48 160 -53 389 -57 l221 -5 4 -131 c3 -118 6
-136 27 -170 13 -21 42 -50 64 -65 l41 -27 576 0 576 0 41 27 c62 41 88 90 88
168 0 78 -26 127 -88 168 l-41 27 -443 3 -443 3 0 614 0 614 223 3 c223 3 224
3 264 30 62 41 88 90 88 168 0 78 -26 127 -88 168 l-41 27 -511 0 -511 0 -41
-27 c-62 -41 -88 -90 -88 -168 0 -78 26 -127 87 -168 34 -22 54 -27 129 -30
l89 -4 0 -415 0 -415 -202 4 -203 3 -67 32 c-93 44 -151 100 -196 191 l-37 76
0 810 0 811 32 67 c44 93 100 151 191 196 l76 37 1830 3 c1807 2 1832 2 1897
-18 77 -23 150 -74 199 -138 82 -109 139 -140 229 -128 57 8 106 39 139 89 23
34 27 52 27 107 0 61 -3 72 -39 126 -106 160 -270 280 -458 335 -62 18 -106
22 -295 26 l-223 5 -2 777 -3 777 -27 41 c-15 22 -44 51 -65 64 l-38 24 -1300
2 c-802 1 -1313 -2 -1333 -8z m2368 -1034 l0 -645 -1050 0 -1050 0 0 645 0
645 1050 0 1050 0 0 -645z"/>
<path d="M842 2719 c-48 -14 -109 -80 -123 -131 -23 -89 12 -182 88 -229 57
-36 154 -34 210 3 62 41 88 90 88 168 0 77 -26 127 -85 166 -43 29 -125 39
-178 23z"/>
<path d="M3630 2694 c-222 -28 -435 -106 -620 -229 -96 -64 -291 -259 -355
-355 -102 -154 -173 -325 -212 -510 -24 -118 -24 -382 0 -500 59 -284 174
-498 377 -700 202 -203 416 -318 700 -377 120 -25 382 -24 505 1 275 57 499
178 696 375 197 197 318 421 376 701 24 118 24 382 0 500 -39 185 -110 356
-212 510 -64 96 -259 291 -355 355 -151 100 -332 176 -500 210 -74 15 -333 27
-400 19z m375 -423 c333 -87 594 -350 687 -691 33 -122 33 -338 0 -460 -93
-344 -348 -599 -692 -692 -122 -33 -338 -33 -460 0 -342 93 -599 348 -692 689
-31 112 -31 354 0 466 103 377 407 648 797 710 69 12 281 -2 360 -22z"/>
<path d="M3702 1939 c-45 -13 -108 -80 -121 -126 -6 -21 -11 -88 -11 -150 l0
-111 -133 -4 c-125 -3 -136 -5 -174 -30 -63 -41 -88 -90 -88 -169 0 -54 5 -72
27 -106 15 -22 44 -51 65 -64 34 -21 52 -24 170 -27 l131 -4 4 -131 c3 -118 6
-136 27 -170 13 -21 42 -50 64 -65 34 -23 52 -27 107 -27 55 0 73 4 107 27 22
15 51 44 64 65 21 34 24 52 27 170 l4 131 131 4 c118 3 136 6 170 27 21 13 50
42 65 64 22 34 27 52 27 106 0 79 -25 128 -88 169 -38 25 -49 27 -173 30
l-132 4 -4 131 c-3 118 -6 136 -27 170 -47 76 -151 113 -239 86z"/>
</g>
</svg>
